<?xml version="1.0" encoding="utf-8"?>
<!-- Generator: Adobe Illustrator 16.0.0, SVG Export Plug-In . SVG Version: 6.00 Build 0)  -->
<!DOCTYPE svg PUBLIC "-//W3C//DTD SVG 1.1//EN" "http://www.w3.org/Graphics/SVG/1.1/DTD/svg11.dtd">
<svg version="1.1" id="Ebene_1" xmlns="http://www.w3.org/2000/svg" xmlns:xlink="http://www.w3.org/1999/xlink" x="0px" y="0px"
	 width="404.6px" height="93.98px" viewBox="0 0 404.6 93.98" enable-background="new 0 0 404.6 93.98" xml:space="preserve">
<g>
	<path d="M60.942,27.69c-2.296,5.226-5.665,10.034-10.107,14.429c-5.079,5.03-10.083,7.91-15.015,8.643
		c-0.928-0.879-1.392-1.758-1.392-2.637c0-0.586,0.22-1.196,0.659-1.831c3.466-3.466,6.689-6.885,9.668-10.254
		c1.659-1.904,2.344-4.223,2.051-6.958c-4.98,0.538-9.62,2.662-13.916,6.372c-4.59,3.955-6.885,8.35-6.885,13.184
		c2.392,6.055,7.031,10.913,13.916,14.575l19.263,8.13c-0.099,0.587-0.146,1.466-0.146,2.638
		c-12.257-0.539-21.998-2.956-29.224-7.252c-4.102-2.441-7.031-5.713-8.789-9.814C20.341,55.352,20,53.618,20,51.714
		c0-2.978,0.83-6.323,2.49-10.034c0.586-2.344,2.758-5.321,6.519-8.936c7.128-6.885,14.11-11.034,20.947-12.451
		C50.883,20.099,51.811,20,52.739,20c3.027,0,5.713,1.124,8.057,3.369c0.439,1.075,0.659,2.003,0.659,2.783
		C61.455,26.788,61.283,27.3,60.942,27.69z"/>
	<path d="M163.701,38.604c-2.149,2.637-4.2,3.955-6.152,3.955c-0.782,0-1.563-0.22-2.344-0.659
		c-2.344-1.269-5.226-2.661-8.643-4.175c-10.646,0-20.606,2.71-29.883,8.13l-27.1,15.82c-6.837,0-11.548-2.271-14.136-6.812
		c-1.71-2.978-2.906-8.397-3.589-16.26c1.269-2.685,2.637-4.345,4.102-4.98c1.025-0.439,3.247-0.659,6.665-0.659
		c2.148,1.954,3.223,4.347,3.223,7.178c0,0.879-0.172,2.173-0.513,3.882c-0.342,1.71-0.513,3.003-0.513,3.882
		c0,2.197,0.487,4.102,1.465,5.713c2.051,0.245,3.344,0.366,3.882,0.366l17.065-9.009c6.689-3.563,12.524-6.25,17.505-8.057
		c8.496-3.124,16.21-4.688,23.145-4.688c5.224,0,10.327,1.124,15.308,3.369C163.335,36.968,163.505,37.97,163.701,38.604z"/>
	<path d="M252.837,56.182c-0.342,0.342-0.855,0.758-1.538,1.245c-2.296-1.659-5.176-4.907-8.643-9.741
		c-3.028-4.248-6.324-7.299-9.888-9.155c-6.445-0.244-12.208,0.562-17.285,2.417c-3.321,1.221-7.617,3.541-12.891,6.958
		c-6.202,4.004-11.109,6.885-14.722,8.643h-3.516c-2.882-2.88-5.226-7.006-7.031-12.378c-1.661-4.882-2.49-9.595-2.49-14.136
		l2.051-0.952c0.732-0.341,2.075-0.513,4.028-0.513c2.051,2.1,3.637,4.64,4.761,7.617l0.22,0.586
		c0.537,1.514,1.489,4.151,2.856,7.91c2.099-0.048,6.103-1.952,12.012-5.713c6.689-4.248,11.719-6.885,15.088-7.91
		c1.952-0.293,3.856-0.439,5.713-0.439c6.493,0,12.426,1.685,17.798,5.054C246.245,39.971,250.737,46.807,252.837,56.182z"/>
	<path d="M353.105,53.618c-2.833,2.833-5.079,4.248-6.738,4.248c-1.758,0-3.565-1.293-5.42-3.882
		c-1.271-1.758-2.809-3.589-4.614-5.493c-1.124-1.172-2.589-1.758-4.395-1.758c-1.221,0-2.271,0.172-3.149,0.513
		c-3.761,1.417-9.327,4.493-16.699,9.229c-7.764,4.98-13.33,8.252-16.699,9.814c-6.69,3.124-12.793,4.735-18.311,4.834
		c-3.028,0.048-5.469-1.172-7.324-3.662c-1.659-2.197-2.49-4.882-2.49-8.057c0-5.321,4.492-11.303,13.477-17.944
		c8.69-6.396,16.015-9.595,21.973-9.595c0.683,0,1.366,0.049,2.051,0.146c0.879,1.172,1.416,2.882,1.611,5.127
		c-2.149,2.833-5.103,4.883-8.862,6.152c-1.954,0.586-5.445,1.685-10.474,3.296c-8.302,2.686-12.281,7.374-11.938,14.062
		c1.513,2.296,3.516,3.442,6.006,3.442c1.416,0,2.954-0.341,4.614-1.025c4.735-1.904,10.302-4.907,16.699-9.009
		c2.978-1.904,8.35-5.297,16.113-10.181c4.735-2.93,9.252-4.395,13.55-4.395c0.683,0,1.366,0.049,2.051,0.146
		c7.079,2.686,11.06,4.273,11.938,4.761C350.762,46.929,353.105,50.005,353.105,53.618z"/>
	<path d="M384.6,59.697c-4.493,3.711-9.448,5.566-14.868,5.566c-1.856-1.708-3.028-2.856-3.516-3.442
		c-1.124-1.366-1.807-2.831-2.051-4.395c1.172-1.806,4.882-3.1,11.133-3.882c0.78-0.097,1.562-0.146,2.344-0.146
		C382.28,53.398,384.6,55.499,384.6,59.697z"/>
</g>
</svg>
